<?xml version="1.0" standalone="no"?>
<!DOCTYPE svg PUBLIC "-//W3C//DTD SVG 20010904//EN"
 "http://www.w3.org/TR/2001/REC-SVG-20010904/DTD/svg10.dtd">
<svg version="1.0" xmlns="http://www.w3.org/2000/svg"
 width="512.000000pt" height="512.000000pt" viewBox="0 0 512.000000 512.000000"
 preserveAspectRatio="xMidYMid meet">
<metadata>
Created by potrace 1.16, written by Peter Selinger 2001-2019
</metadata>
<g transform="translate(0.000000,512.000000) scale(0.100000,-0.100000)"
fill="#000000" stroke="none">
<path d="M1720 3450 c-416 -40 -544 -90 -838 -325 -78 -63 -86 -67 -155 -76
-39 -6 -83 -18 -97 -28 -33 -24 -78 -135 -89 -218 -5 -38 -21 -93 -35 -123
-30 -65 -33 -124 -11 -250 32 -184 43 -215 95 -267 35 -35 54 -64 68 -105 l19
-58 -46 0 c-63 0 -219 -19 -259 -31 -68 -22 -58 -26 328 -128 146 -39 295 -79
333 -89 37 -11 70 -16 73 -11 6 10 35 1 49 -16 10 -11 56 -25 415 -120 338
-90 420 -115 533 -160 75 -30 160 -54 243 -70 149 -29 137 -28 129 -15 -3 6
-15 10 -26 10 -21 0 -60 19 -71 35 -8 11 -1 25 13 25 6 0 8 -4 5 -9 -3 -4 24
-11 61 -14 70 -7 94 -23 66 -44 -9 -7 -15 -14 -12 -16 13 -11 273 -38 459 -48
353 -19 618 -5 1260 66 336 38 538 68 571 86 50 26 -9 51 -191 79 -69 11 -140
22 -159 26 l-34 5 33 21 c22 13 63 23 119 28 73 7 209 45 228 63 3 3 11 41 19
84 46 253 40 372 -24 499 -21 44 -47 104 -57 134 -10 30 -26 67 -37 82 -21 31
-323 191 -438 232 -83 30 -273 76 -455 111 -91 17 -119 25 -116 36 3 8 6 33 9
56 5 55 -17 69 -129 84 -77 10 -88 15 -134 54 -116 98 -276 209 -360 250 -149
73 -346 119 -625 145 -155 15 -612 21 -730 10z m125 -20 c-33 -4 -82 -8 -110
-7 l-50 0 60 7 c33 4 83 7 110 7 l50 0 -60 -7z m700 -20 c181 -23 355 -61 329
-71 -14 -6 -10 -8 16 -9 19 -1 44 -6 55 -11 14 -7 2 -8 -40 -5 -277 22 -455
28 -710 24 -210 -4 -265 -3 -200 4 50 5 259 8 465 6 238 -2 348 -1 300 5 -41
4 -120 17 -175 27 -86 16 -249 40 -375 54 -19 2 16 2 78 -1 62 -2 178 -13 257
-23z m-837 -21 c71 -11 116 -34 145 -72 35 -46 92 -162 158 -322 l58 -140 -32
-6 c-24 -5 -16 -7 31 -8 53 -1 62 -4 62 -20 0 -20 36 -71 50 -71 5 0 -2 12
-15 26 -14 15 -25 36 -25 47 0 21 -6 21 145 2 l40 -5 -40 14 c-35 12 34 14
565 13 333 0 574 -4 535 -8 -47 -4 -20 -6 80 -4 104 3 164 0 195 -10 25 -7
115 -27 200 -45 349 -71 378 -80 598 -192 112 -57 208 -111 214 -121 10 -20 4
-27 -62 -69 -31 -20 -45 -22 -146 -19 -152 4 -222 -6 -251 -35 l-23 -23 -38
22 c-35 21 -49 22 -222 22 -134 0 -194 -4 -217 -14 -28 -12 -47 -11 -145 8
-62 11 -192 30 -288 41 -96 12 -182 24 -190 26 -30 10 -166 12 -202 3 -42 -11
-98 -54 -98 -75 0 -18 75 -73 161 -118 68 -37 110 -45 309 -66 144 -14 201
-13 246 6 58 24 158 12 204 -25 83 -66 108 -73 268 -69 136 3 150 5 180 27 31
21 34 22 51 7 21 -19 112 -21 211 -5 78 12 105 28 127 75 10 19 22 33 29 30
17 -6 112 17 150 37 35 18 39 16 68 -40 20 -40 39 -210 31 -283 -11 -96 -37
-225 -49 -237 -6 -7 -32 -19 -57 -26 -45 -14 -46 -13 -82 17 -36 30 -37 32
-21 54 16 23 122 77 132 67 9 -9 -21 -36 -73 -67 l-50 -30 50 7 c58 8 77 22
105 81 23 46 41 224 24 224 -14 0 -207 -80 -217 -89 -5 -5 1 -39 12 -76 21
-66 21 -68 2 -109 -33 -74 -30 -73 -332 -107 -312 -34 -455 -40 -514 -20 -40
14 -42 13 -97 -23 l-56 -38 -169 4 c-160 3 -168 2 -134 -13 21 -9 31 -18 24
-22 -11 -7 -284 7 -442 22 -48 5 -87 14 -91 21 -5 7 -11 63 -15 124 -12 196
-43 362 -85 462 l-19 43 22 4 c19 4 19 4 -4 6 -18 1 -30 10 -41 34 -25 52
-114 143 -163 166 -133 62 -257 -22 -313 -214 -8 -27 -17 -116 -21 -196 l-6
-146 -87 25 c-49 14 -88 29 -88 33 0 4 32 -3 72 -17 39 -13 73 -22 76 -19 5 5
-95 51 -123 57 -12 2 -22 13 -24 28 -4 24 -4 24 -10 4 -6 -21 -10 -21 -235 42
-126 35 -254 71 -284 80 l-55 15 6 70 c3 40 0 109 -8 162 -7 51 -16 120 -20
155 -4 35 -9 61 -12 58 -3 -3 3 -65 12 -138 19 -144 21 -328 4 -339 -6 -3 11
-12 36 -18 26 -7 50 -10 52 -7 3 3 -11 8 -31 11 -20 4 -36 11 -36 15 0 5 37
-3 83 -17 85 -26 100 -33 76 -34 -18 -1 21 -18 41 -18 10 0 8 4 -5 10 -28 13
38 0 90 -17 22 -8 28 -12 13 -9 -16 3 -40 7 -55 10 -16 3 -10 -1 12 -9 55 -18
117 -30 90 -16 -15 8 -12 9 15 4 19 -4 44 -11 55 -15 14 -6 9 -7 -15 -3 -64
12 -26 -3 105 -40 271 -77 265 -75 265 -105 0 -14 4 -41 9 -59 6 -21 6 -32 -1
-32 -5 0 -101 24 -211 54 -111 30 -368 96 -572 146 -203 51 -377 97 -387 101
-10 6 -18 27 -23 61 -3 29 -9 61 -11 71 -4 11 1 17 13 18 16 1 16 2 1 6 -12 3
-19 19 -23 51 -24 190 -62 306 -118 360 -68 66 -131 45 -178 -60 -22 -49 -24
-66 -24 -210 0 -87 -3 -158 -6 -158 -18 0 -70 76 -83 123 -23 77 -46 222 -46
282 0 54 26 145 41 145 5 0 9 7 9 15 0 8 13 34 30 57 32 44 38 85 18 118 -11
16 -9 26 7 56 25 46 47 60 110 68 l50 6 -24 -20 c-14 -12 -18 -20 -9 -20 17 0
53 24 98 66 60 55 261 204 326 240 79 44 183 79 276 93 128 19 163 19 276 0z
m1121 -84 c106 -8 198 -18 205 -22 66 -41 452 -358 500 -412 l19 -21 -84 6
c-198 12 -205 13 -233 45 -19 21 -35 29 -60 29 -18 0 -53 7 -76 15 -23 8 -61
15 -84 15 l-42 0 -39 80 c-73 150 -82 160 -155 180 -36 9 -74 21 -84 25 -19 8
-19 7 2 -22 26 -37 27 -44 7 -36 -17 6 -51 62 -47 76 1 5 -2 6 -8 2 -5 -3 -10
-1 -10 4 0 6 -5 11 -11 11 -6 0 -22 9 -36 20 l-26 20 34 0 c19 0 121 -7 228
-15z m-774 -94 c-58 -57 -78 -60 -95 -14 -8 21 -16 41 -18 46 -2 4 32 7 75 7
l78 0 -40 -39z m493 22 l36 -17 -34 -7 c-36 -8 -62 -34 -58 -59 2 -11 23 -16
83 -21 94 -6 89 -12 -7 -9 -66 2 -68 1 -88 -32 -11 -18 -20 -43 -20 -55 0 -16
-6 -23 -19 -23 -15 0 -21 15 -35 83 -19 98 -20 129 -4 145 18 18 105 15 146
-5z m-200 -105 c35 -126 36 -118 -13 -118 -35 0 -45 4 -50 20 -5 15 -15 20
-40 20 -33 0 -34 1 -24 30 11 30 84 120 98 120 5 0 17 -33 29 -72z m437 -157
c6 -20 4 -23 -10 -18 -9 4 -27 7 -40 7 -21 0 -23 3 -16 22 10 28 -6 91 -29
115 -16 17 -16 19 4 38 l21 20 31 -80 c18 -44 35 -91 39 -104z m874 -16 c27
-8 27 -29 -1 -43 -18 -8 -19 -11 -5 -11 25 -1 21 -21 -4 -21 -18 0 -107 69
-117 90 -3 7 94 -4 127 -15z m-2869 -435 c11 -6 25 -20 31 -33 10 -18 7 -17
-14 6 -25 26 -61 35 -83 19 -5 -4 -18 -18 -27 -32 -9 -13 -17 -20 -17 -14 0 6
11 23 25 38 25 27 54 33 85 16z m3910 -120 c-83 -51 -120 -70 -120 -61 0 18
114 90 125 79 7 -6 5 -12 -5 -18z m-4033 -2 c-3 -8 -6 -5 -6 6 -1 11 2 17 5
13 3 -3 4 -12 1 -19z m2528 -17 c259 -27 415 -51 415 -63 0 -6 -19 -7 -47 -4
-27 3 -144 15 -262 26 l-215 20 -28 -30 c-15 -17 -29 -35 -29 -41 -1 -5 -2
-15 -3 -21 -1 -16 -58 -11 -68 6 -6 8 -8 7 -8 -2 0 -7 -4 -10 -10 -7 -5 3 -10
10 -10 16 0 12 47 12 55 -1 8 -13 25 -13 25 0 0 5 -15 16 -32 24 l-33 14 30 2
c30 2 30 2 5 10 -18 6 -20 9 -7 10 17 2 30 5 45 10 4 1 15 2 25 1 9 -1 17 2
17 7 0 11 -80 22 -165 22 -58 1 -59 1 -35 16 28 16 30 16 335 -15z m1544 -82
c1 -18 -36 -38 -89 -49 -19 -4 -43 -11 -52 -15 -11 -4 -18 -3 -18 4 0 6 8 11
18 11 25 0 31 7 25 29 -3 13 -11 17 -24 14 -15 -4 -18 -2 -13 11 9 23 21 20
40 -9 33 -51 83 -16 85 60 l1 40 13 -40 c8 -22 14 -47 14 -56z m-4006 21 c6 0
8 -3 4 -6 -3 -4 -22 3 -41 14 -32 19 -35 19 -39 4 -3 -10 -5 -5 -6 10 l-1 27
36 -24 c20 -14 41 -25 47 -25z m134 28 c-3 -8 -6 -5 -6 6 -1 11 2 17 5 13 3
-3 4 -12 1 -19z m3820 -23 c-9 -8 -20 -15 -26 -15 -6 0 0 10 12 23 12 12 23
19 25 15 2 -4 -3 -15 -11 -23z m-3810 -42 c-3 -10 -5 -2 -5 17 0 19 2 27 5 18
2 -10 2 -26 0 -35z m2186 17 c-3 -11 2 -32 12 -46 12 -19 13 -25 3 -22 -18 6
-39 53 -32 72 9 23 23 20 17 -4z m264 -10 c-20 -52 10 -76 68 -56 20 8 20 7 1
-8 -30 -24 -61 -19 -98 15 -18 18 -25 29 -15 26 11 -4 17 -1 17 8 0 12 -16 15
-75 15 -41 0 -75 3 -75 8 0 4 36 5 81 2 58 -4 84 -1 91 8 16 19 17 15 5 -18z
m336 23 c-7 -2 -19 -2 -25 0 -7 3 -2 5 12 5 14 0 19 -2 13 -5z m-188 -26 l60
-3 -62 -2 c-51 -2 -61 -5 -57 -17 4 -8 1 -15 -5 -15 -6 0 -11 15 -11 33 0 18
4 27 8 20 4 -6 34 -14 67 -16z m-981 -24 c59 -41 96 -108 117 -210 34 -160 19
-298 -43 -415 -79 -149 -209 -169 -292 -44 -40 60 -82 175 -73 199 6 16 81 60
89 52 7 -7 122 36 130 48 5 8 8 6 8 -5 0 -10 -6 -18 -13 -18 -7 0 -39 -13 -72
-30 -33 -16 -65 -30 -72 -30 -6 0 -14 -6 -16 -12 -3 -8 -6 -6 -6 5 -1 17 -2
17 -21 -1 -17 -16 -18 -23 -9 -58 16 -59 69 -152 101 -180 32 -26 49 -31 46
-11 -2 6 3 11 11 9 70 -15 72 -15 65 4 -7 19 -6 19 8 0 14 -18 16 -18 41 -1
42 27 117 161 103 184 -3 5 0 11 6 13 10 4 13 38 13 131 0 147 -6 161 -57 127
-31 -21 -31 -20 5 12 l38 34 -16 43 c-23 66 -53 110 -98 142 -61 44 -77 40
-79 -23 l-2 -53 -3 53 c-3 44 -7 52 -23 52 -29 0 -92 -61 -124 -120 l-28 -52
48 -50 c27 -27 72 -63 99 -79 58 -33 53 -39 -7 -8 -23 12 -65 43 -94 71 -51
48 -52 49 -60 26 -4 -13 -10 -77 -14 -143 l-7 -120 -1 101 c-2 105 14 214 31
214 5 0 7 9 4 20 -3 11 -1 18 3 15 5 -3 12 4 15 16 9 28 63 88 100 111 40 25
96 18 149 -19z m-1837 -50 c-2 -16 -4 -3 -4 27 0 30 2 43 4 28 2 -16 2 -40 0
-55z m202 29 c1 -7 -3 -10 -9 -7 -5 3 -10 18 -9 33 0 24 1 25 9 7 5 -11 9 -26
9 -33z m2296 -2 l-29 -30 85 0 c46 0 110 -4 143 -10 46 -7 66 -6 93 5 20 8 56
14 82 14 l46 -2 -56 -6 c-31 -3 -63 -12 -71 -18 -12 -10 -52 -10 -197 2 -200
16 -240 23 -220 36 7 4 19 3 26 -2 17 -15 67 -2 89 22 9 10 22 19 27 19 6 0
-2 -13 -18 -30z m-2278 -47 c-2 -16 -4 -5 -4 22 0 28 2 40 4 28 2 -13 2 -35 0
-50z m-111 31 c-22 -8 -54 -26 -73 -40 -18 -14 -33 -21 -33 -15 0 21 91 69
130 70 8 0 -3 -7 -24 -15z m2857 -21 c-7 -2 -19 -2 -25 0 -7 3 -2 5 12 5 14 0
19 -2 13 -5z m-2815 -40 c-14 -16 -38 -46 -52 -67 -14 -21 -26 -34 -26 -29 0
17 86 123 99 123 2 0 -7 -12 -21 -27z m59 -35 c-3 -8 -6 -5 -6 6 -1 11 2 17 5
13 3 -3 4 -12 1 -19z m1550 0 c-3 -8 -6 -5 -6 6 -1 11 2 17 5 13 3 -3 4 -12 1
-19z m-1721 -86 c9 -23 20 -40 25 -36 5 3 8 0 7 -7 -2 -8 6 -13 19 -14 12 0
25 -3 29 -7 13 -13 26 -9 20 7 -3 8 0 14 7 12 7 -1 11 7 9 18 -2 15 0 16 6 7
7 -11 11 -7 16 13 4 15 9 25 12 22 9 -9 -23 -71 -49 -96 -25 -23 -27 -23 -52
-7 -28 19 -75 108 -74 141 0 14 2 15 5 5 3 -8 12 -34 20 -58z m131 46 c-3 -8
-6 -5 -6 6 -1 11 2 17 5 13 3 -3 4 -12 1 -19z m30 -10 c-3 -7 -5 -2 -5 12 0
14 2 19 5 13 2 -7 2 -19 0 -25z m1713 11 c-7 -11 -14 -19 -16 -16 -7 7 7 37
17 37 6 0 5 -9 -1 -21z m-1763 -36 c-3 -10 -5 -2 -5 17 0 19 2 27 5 18 2 -10
2 -26 0 -35z m1106 -119 c20 -4 40 -11 43 -16 6 -10 -27 -3 -91 18 -22 8 -29
12 -15 9 14 -3 42 -8 63 -11z m575 -10 c2 -11 -4 -26 -12 -33 -12 -10 -17 -9
-25 8 -6 11 -8 27 -5 36 9 22 38 14 42 -11z m105 1 c-3 -9 -8 -14 -10 -11 -3
3 -2 9 2 15 9 16 15 13 8 -4z m-83 -42 c0 -10 -10 -29 -21 -43 -11 -14 -18
-19 -14 -12 3 6 2 12 -3 12 -15 0 -51 -44 -77 -96 -14 -27 -23 -38 -19 -24 13
52 56 112 90 126 22 9 34 21 34 34 0 11 2 20 5 20 3 0 5 -8 5 -17z m-47 -88
c-3 -9 -8 -14 -10 -11 -3 3 -2 9 2 15 9 16 15 13 8 -4z m-23 -70 c-6 -30 -8
-33 -9 -13 -1 25 8 62 14 56 2 -2 -1 -21 -5 -43z m-130 -36 c11 -21 16 -39 11
-39 -11 0 -25 22 -41 65 -15 39 6 21 30 -26z m117 -31 c-3 -8 -6 -5 -6 6 -1
11 2 17 5 13 3 -3 4 -12 1 -19z m-83 -62 c-3 -14 -11 -26 -16 -26 -6 0 -7 8
-3 18 4 9 7 26 7 36 -1 13 2 16 9 9 6 -6 7 -22 3 -37z m-33 17 c13 -16 12 -17
-3 -4 -17 13 -22 21 -14 21 2 0 10 -8 17 -17z m126 -15 c-3 -8 -6 -5 -6 6 -1
11 2 17 5 13 3 -3 4 -12 1 -19z m150 -204 c-3 -3 -12 -4 -19 -1 -8 3 -5 6 6 6
11 1 17 -2 13 -5z"/>
<path d="M1355 3355 c-119 -26 -246 -90 -335 -171 -43 -39 -66 -97 -72 -184
l-3 -44 220 -32 c121 -18 228 -33 239 -33 16 -1 17 -3 5 -18 -13 -16 -12 -17
3 -5 18 14 108 9 157 -9 13 -5 67 -16 120 -24 225 -35 321 -57 322 -74 0 -11
2 -12 6 -3 10 26 -90 291 -169 444 -56 110 -78 131 -164 153 -71 18 -245 19
-329 0z m137 -76 c-2 -8 -17 -51 -34 -97 l-32 -83 -115 7 c-64 4 -117 8 -119
9 -1 1 12 34 30 74 24 51 37 70 49 67 9 -2 24 1 34 6 19 11 164 37 180 33 6
-1 9 -9 7 -16z m286 -33 c16 -19 51 -76 76 -126 44 -87 45 -92 30 -116 -18
-26 -29 -30 -40 -13 -10 17 -220 5 -267 -15 -34 -14 -37 -18 -31 -43 4 -22 3
-25 -5 -13 -9 13 -11 12 -12 -5 0 -11 -3 -15 -5 -9 -9 22 25 210 53 289 l28
80 62 0 c52 0 60 2 50 14 -26 31 31 -9 61 -43z m-558 -8 c-15 -29 -38 -84 -50
-121 -15 -45 -27 -66 -36 -63 -7 3 -30 8 -51 12 -21 4 -45 10 -54 15 -46 23
34 116 151 177 34 17 64 32 65 32 2 0 -10 -24 -25 -52z m275 -87 c-4 -9 -11
-37 -17 -63 -7 -31 -17 -48 -30 -51 -10 -3 -18 -2 -18 1 0 22 34 122 42 122 5
0 6 4 3 10 -3 6 1 7 10 4 10 -4 14 -13 10 -23z m15 -53 c0 -44 -14 -78 -26
-66 -6 7 14 108 22 108 2 0 4 -19 4 -42z m319 -144 c40 -51 31 -58 -66 -50
-49 4 -108 12 -132 17 -34 8 -47 7 -54 -3 -6 -10 -7 -8 -4 4 3 9 1 19 -6 21
-39 14 56 34 165 36 71 1 78 -1 97 -25z"/>
<path d="M1664 3242 c-13 -8 -34 -46 -34 -61 0 -7 30 -11 80 -11 l80 0 -20 40
c-18 36 -24 40 -58 40 -20 0 -42 -4 -48 -8z"/>
<path d="M818 2963 c12 -2 32 -2 45 0 12 2 2 4 -23 4 -25 0 -35 -2 -22 -4z"/>
<path d="M753 2873 c-24 -9 -13 -18 24 -18 26 0 38 -5 41 -16 2 -14 -4 -15
-44 -9 -42 7 -45 6 -29 -6 10 -8 27 -14 36 -14 10 0 24 -3 33 -6 13 -5 16 1
16 29 0 42 -32 59 -77 40z"/>
<path d="M883 2820 c0 -25 2 -35 4 -22 2 12 2 32 0 45 -2 12 -4 2 -4 -23z"/>
<path d="M940 2850 c-11 -7 -8 -10 16 -10 16 0 39 -7 50 -15 19 -14 19 -14 -1
-15 -11 0 -36 4 -54 10 -43 12 -51 6 -24 -20 27 -25 69 -35 78 -20 6 9 10 9
16 -1 7 -11 11 -10 23 6 8 12 10 21 5 24 -6 1 -21 14 -34 27 -25 25 -50 30
-75 14z"/>
<path d="M2833 2833 c54 -2 139 -2 190 0 51 1 7 3 -98 3 -104 0 -146 -2 -92
-3z"/>
<path d="M3458 2813 c12 -2 30 -2 40 0 9 3 -1 5 -23 4 -22 0 -30 -2 -17 -4z"/>
<path d="M1108 2793 c7 -3 16 -2 19 1 4 3 -2 6 -13 5 -11 0 -14 -3 -6 -6z"/>
<path d="M1178 2783 c7 -3 16 -2 19 1 4 3 -2 6 -13 5 -11 0 -14 -3 -6 -6z"/>
<path d="M3531 2786 c2 -3 51 -14 109 -26 160 -33 312 -95 443 -183 75 -51 89
-47 26 7 -54 45 -174 108 -272 141 -90 30 -321 76 -306 61z"/>
<path d="M1060 2771 c21 -12 90 -25 70 -13 -8 5 -31 12 -50 15 -22 4 -29 3
-20 -2z"/>
<path d="M1238 2773 c7 -3 16 -2 19 1 4 3 -2 6 -13 5 -11 0 -14 -3 -6 -6z"/>
<path d="M1446 2769 c3 -6 -1 -10 -12 -9 -33 4 -45 0 -39 -10 3 -5 23 -10 43
-10 20 -1 48 -7 62 -15 l25 -14 -35 0 c-19 0 -52 3 -72 8 -47 11 -49 -2 -5
-29 34 -21 77 -27 77 -10 0 6 9 10 20 10 11 0 20 7 20 15 0 11 12 15 43 16
l42 1 -45 8 c-25 4 -61 17 -80 29 -38 23 -55 27 -44 10z"/>
<path d="M3095 2771 c11 -5 85 -23 165 -40 80 -18 206 -52 280 -76 74 -25 136
-43 138 -41 5 6 -131 56 -238 86 -153 44 -410 97 -345 71z"/>
<path d="M1348 2730 c2 -16 5 -30 7 -30 2 0 5 14 7 30 3 19 0 30 -7 30 -7 0
-10 -11 -7 -30z"/>
<path d="M2675 2749 c-25 -7 -22 -7 15 -4 29 4 40 2 31 -4 -10 -6 3 -12 45
-20 32 -7 69 -14 82 -17 12 -2 22 0 22 6 0 5 -11 10 -25 10 -14 0 -25 5 -25
10 0 7 -15 9 -37 5 -28 -4 -33 -3 -18 4 l20 10 -20 0 c-11 1 -29 3 -40 5 -11
2 -33 0 -50 -5z"/>
<path d="M2231 2736 c2 -2 75 -22 162 -45 228 -59 396 -116 525 -176 61 -30
112 -51 112 -49 0 3 -51 30 -112 59 -132 63 -265 108 -503 170 -165 43 -193
50 -184 41z"/>
<path d="M1638 2713 c7 -3 16 -2 19 1 4 3 -2 6 -13 5 -11 0 -14 -3 -6 -6z"/>
<path d="M1698 2703 c7 -3 16 -2 19 1 4 3 -2 6 -13 5 -11 0 -14 -3 -6 -6z"/>
<path d="M1743 2688 c1 -9 -11 -12 -42 -10 -60 3 -46 -7 31 -23 62 -13 89 -13
48 0 -15 5 -20 13 -17 26 3 12 0 19 -9 19 -8 0 -13 -6 -11 -12z"/>
<path d="M892 2660 c0 -19 2 -27 5 -17 2 9 2 25 0 35 -3 9 -5 1 -5 -18z"/>
<path d="M1625 2680 c-3 -5 1 -10 10 -10 9 0 13 5 10 10 -3 6 -8 10 -10 10 -2
0 -7 -4 -10 -10z"/>
<path d="M1971 2603 c2 -63 2 -64 8 -23 4 25 9 50 13 55 3 6 0 16 -8 23 -12
11 -14 3 -13 -55z"/>
<path d="M2022 2633 c10 -2 21 -15 24 -28 3 -14 15 -26 27 -28 18 -3 17 -5 -5
-6 -26 -1 -28 -4 -28 -40 0 -41 11 -51 54 -51 27 0 112 55 126 81 13 24 -18
40 -117 63 -63 14 -128 21 -81 9z m105 -69 c-3 -3 -12 -4 -19 -1 -8 3 -5 6 6
6 11 1 17 -2 13 -5z"/>
<path d="M901 2594 c0 -11 3 -14 6 -6 3 7 2 16 -1 19 -3 4 -6 -2 -5 -13z"/>
<path d="M1963 2370 c0 -144 11 -410 15 -347 1 15 6 27 11 27 5 0 5 18 -1 43
-5 23 -13 130 -17 237 l-8 195 0 -155z"/>
<path d="M4044 2465 c-8 -21 4 -35 43 -51 64 -27 98 9 43 45 -23 14 -24 14
-12 0 11 -14 9 -17 -13 -21 -14 -3 -23 -3 -21 0 3 3 -2 11 -12 19 -16 14 -16
14 1 9 9 -3 17 -1 17 4 0 16 -40 12 -46 -5z"/>
<path d="M4333 2443 c37 -2 97 -2 135 0 37 2 6 3 -68 3 -74 0 -105 -1 -67 -3z"/>
<path d="M3963 2433 c9 -2 23 -2 30 0 6 3 -1 5 -18 5 -16 0 -22 -2 -12 -5z"/>
<path d="M3783 2423 c9 -2 25 -2 35 0 9 3 1 5 -18 5 -19 0 -27 -2 -17 -5z"/>
<path d="M981 2334 c-1 -6 10 -44 24 -84 14 -40 23 -75 20 -78 -4 -4 61 -52
71 -52 2 0 -9 12 -26 28 -21 18 -39 54 -59 112 -16 47 -30 80 -30 74z"/>
<path d="M2153 2299 c-15 -19 -43 -116 -36 -123 11 -11 23 -6 23 9 0 8 7 35
16 60 17 50 15 76 -3 54z"/>
<path d="M2748 2213 c7 -3 16 -2 19 1 4 3 -2 6 -13 5 -11 0 -14 -3 -6 -6z"/>
<path d="M1235 2139 c115 -37 144 -45 134 -34 -7 6 -235 75 -246 74 -4 -1 46
-19 112 -40z"/>
<path d="M4706 2135 c-43 -16 -55 -24 -45 -31 20 -12 38 -14 45 -3 3 5 9 7 12
5 4 -2 23 9 42 25 41 34 27 35 -54 4z"/>
<path d="M1118 2113 c7 -3 16 -2 19 1 4 3 -2 6 -13 5 -11 0 -14 -3 -6 -6z"/>
<path d="M1178 2103 c7 -3 16 -2 19 1 4 3 -2 6 -13 5 -11 0 -14 -3 -6 -6z"/>
<path d="M3148 2099 c-18 -10 -48 -96 -48 -133 1 -21 1 -21 16 -1 35 45 66
118 54 125 -9 6 -9 9 1 13 8 3 10 6 4 6 -5 0 -18 -4 -27 -10z"/>
<path d="M1228 2093 c7 -3 16 -2 19 1 4 3 -2 6 -13 5 -11 0 -14 -3 -6 -6z"/>
<path d="M3218 2093 c6 -2 18 -2 25 0 6 3 1 5 -13 5 -14 0 -19 -2 -12 -5z"/>
<path d="M1278 2083 c7 -3 16 -2 19 1 4 3 -2 6 -13 5 -11 0 -14 -3 -6 -6z"/>
<path d="M1155 2073 c14 -15 113 -46 124 -39 5 4 11 2 13 -4 1 -5 12 -11 23
-13 11 -1 26 -6 33 -11 7 -4 16 -5 19 -2 3 3 11 2 17 -3 6 -5 27 -13 46 -19
19 -5 91 -26 160 -46 137 -40 140 -40 140 -26 0 6 -6 10 -14 10 -7 0 -111 29
-230 65 -119 36 -221 63 -226 60 -6 -4 -10 -1 -10 5 0 7 -7 10 -15 6 -8 -3
-15 -1 -15 4 0 5 -8 8 -17 8 -10 0 -27 3 -38 7 -14 5 -17 5 -10 -2z"/>
<path d="M1318 2073 c6 -2 18 -2 25 0 6 3 1 5 -13 5 -14 0 -19 -2 -12 -5z"/>
<path d="M2764 1958 c32 -133 33 -134 42 -125 15 15 -43 247 -61 247 -8 0 -2
-40 19 -122z"/>
<path d="M4133 2056 c-83 -6 -154 -14 -157 -17 -4 -3 -7 -40 -7 -82 l-1 -76
-31 -5 c-18 -3 -61 -9 -97 -13 -64 -8 -65 -9 -97 -58 -44 -67 -43 -97 7 -147
31 -32 45 -39 62 -34 13 4 115 15 228 26 202 18 451 47 456 53 1 1 12 25 24
52 31 72 70 110 70 68 0 -9 3 -14 6 -10 16 16 -53 157 -78 157 -6 0 -2 -10 10
-23 12 -13 22 -26 22 -30 0 -4 -34 -7 -75 -7 l-75 0 3 78 2 77 -60 1 c-33 1
-128 -4 -212 -10z m257 -80 l0 -73 -102 -7 c-57 -3 -142 -9 -190 -13 l-88 -6
0 76 0 75 98 7 c53 3 108 7 122 9 14 2 55 4 93 5 l67 1 0 -74z"/>
<path d="M1485 2030 c11 -5 27 -9 35 -9 9 0 8 4 -5 9 -11 5 -27 9 -35 9 -9 0
-8 -4 5 -9z"/>
<path d="M3768 2003 c7 -3 16 -2 19 1 4 3 -2 6 -13 5 -11 0 -14 -3 -6 -6z"/>
<path d="M3733 1985 c-3 -9 -3 -18 -1 -21 3 -3 8 4 11 16 6 23 -1 27 -10 5z"/>
<path d="M3176 1959 c-62 -10 -78 -36 -95 -156 -19 -124 -15 -150 21 -144 11
1 353 -18 418 -24 l55 -5 -59 20 c-32 10 -63 23 -68 28 -14 14 127 161 172
180 l35 16 -60 7 c-33 4 -132 12 -220 19 -88 6 -171 14 -185 17 l-25 6 30 9
c17 5 53 13 80 17 l50 7 -57 5 c-31 2 -72 1 -92 -2z"/>
<path d="M1740 1900 c0 -5 5 -10 10 -10 6 0 10 5 10 10 0 6 -4 10 -10 10 -5 0
-10 -4 -10 -10z"/>
<path d="M1770 1890 c0 -5 5 -10 10 -10 6 0 10 5 10 10 0 6 -4 10 -10 10 -5 0
-10 -4 -10 -10z"/>
<path d="M1800 1881 c0 -5 12 -12 28 -15 15 -4 35 -9 45 -12 10 -3 17 0 17 7
0 7 -3 9 -7 6 -3 -4 -11 -3 -17 2 -17 13 -66 22 -66 12z"/>
<path d="M1905 1850 c-3 -6 1 -7 9 -4 18 7 21 14 7 14 -6 0 -13 -4 -16 -10z"/>
<path d="M1945 1840 c3 -5 8 -10 11 -10 2 0 4 5 4 10 0 6 -5 10 -11 10 -5 0
-7 -4 -4 -10z"/>
<path d="M3628 1643 c7 -3 16 -2 19 1 4 3 -2 6 -13 5 -11 0 -14 -3 -6 -6z"/>
<path d="M3668 1633 c7 -3 16 -2 19 1 4 3 -2 6 -13 5 -11 0 -14 -3 -6 -6z"/>
<path d="M2380 1540 c0 -5 5 -10 11 -10 5 0 7 5 4 10 -3 6 -8 10 -11 10 -2 0
-4 -4 -4 -10z"/>
</g>
</svg>