<?xml version="1.0" encoding="iso-8859-1"?>
<!-- Uploaded to: SVG Repo, www.svgrepo.com, Generator: SVG Repo Mixer Tools -->
<svg fill="#000000" height="800px" width="800px" version="1.1" id="Layer_1" xmlns="http://www.w3.org/2000/svg" xmlns:xlink="http://www.w3.org/1999/xlink" 
	 viewBox="0 0 512 512" xml:space="preserve">
<g>
	<g>
		<g>
			<path d="M132.414,190.34v34.216c0,2.737,2.225,4.961,4.961,4.961h13.815c0.309-1.201,0.786-2.33,1.218-3.487
				c0.212-0.556,0.353-1.148,0.591-1.695c0.847-1.951,1.845-3.805,3.01-5.553c0.265-0.388,0.591-0.724,0.865-1.103
				c0.962-1.324,1.986-2.604,3.125-3.787c0.521-0.53,1.086-1.006,1.633-1.51c1.015-0.918,2.048-1.801,3.169-2.613
				c0.653-0.468,1.324-0.9,2.013-1.333c1.139-0.706,2.313-1.342,3.531-1.916c0.733-0.344,1.448-0.689,2.198-0.989
				c1.351-0.53,2.745-0.936,4.175-1.298c0.689-0.177,1.342-0.397,2.039-0.53c2.154-0.415,4.352-0.671,6.621-0.671
				c2.269,0,4.467,0.256,6.621,0.671c0.697,0.132,1.351,0.353,2.039,0.53c1.43,0.362,2.825,0.768,4.175,1.298
				c0.75,0.3,1.465,0.644,2.198,0.989c1.218,0.574,2.392,1.209,3.531,1.916c0.689,0.433,1.359,0.865,2.013,1.333
				c1.121,0.812,2.154,1.695,3.169,2.613c0.547,0.503,1.112,0.98,1.633,1.51c1.139,1.183,2.163,2.463,3.125,3.787
				c0.274,0.38,0.6,0.715,0.865,1.103c1.165,1.748,2.163,3.602,3.01,5.553c0.238,0.547,0.38,1.139,0.591,1.695
				c0.433,1.156,0.909,2.286,1.218,3.487h72.863c0.309-1.201,0.786-2.33,1.218-3.487c0.212-0.556,0.353-1.148,0.591-1.695
				c0.847-1.951,1.845-3.805,3.01-5.553c0.265-0.388,0.591-0.724,0.865-1.103c0.962-1.324,1.986-2.604,3.125-3.787
				c0.521-0.53,1.086-1.006,1.633-1.51c1.015-0.918,2.048-1.801,3.169-2.613c0.653-0.468,1.324-0.9,2.013-1.333
				c1.139-0.706,2.313-1.342,3.531-1.916c0.733-0.344,1.448-0.689,2.198-0.989c1.351-0.53,2.745-0.936,4.175-1.298
				c0.689-0.177,1.342-0.397,2.039-0.53c2.154-0.415,4.352-0.671,6.621-0.671c2.269,0,4.467,0.256,6.621,0.671
				c0.697,0.132,1.351,0.353,2.039,0.53c1.43,0.362,2.825,0.768,4.175,1.298c0.75,0.3,1.465,0.644,2.198,0.989
				c1.218,0.574,2.392,1.209,3.531,1.916c0.689,0.433,1.359,0.865,2.013,1.333c1.121,0.812,2.154,1.695,3.169,2.613
				c0.547,0.503,1.112,0.98,1.633,1.51c1.139,1.183,2.163,2.463,3.125,3.787c0.274,0.38,0.6,0.715,0.865,1.103
				c1.165,1.748,2.163,3.602,3.01,5.553c0.238,0.547,0.38,1.139,0.591,1.695c0.433,1.156,0.909,2.286,1.218,3.487h13.815
				c2.737,0,4.961-2.225,4.961-4.961V190.34c0-2.737-2.224-4.961-4.961-4.961h-21.522H158.897h-21.522
				C134.638,185.379,132.414,187.604,132.414,190.34z"/>
			<path d="M307.871,128.406c-2.154-3.019-5.667-4.82-9.384-4.82h-33.66v44.138h71.124L307.871,128.406z"/>
			<path d="M247.172,123.586h-33.66c-3.716,0-7.23,1.801-9.384,4.82l-28.081,39.318h71.124V123.586z"/>
			<path d="M185.379,220.69c-9.737,0-17.655,7.918-17.655,17.655c0,9.737,7.918,17.655,17.655,17.655s17.655-7.918,17.655-17.655
				C203.034,228.608,195.116,220.69,185.379,220.69z"/>
			<path d="M326.621,220.69c-9.737,0-17.655,7.918-17.655,17.655c0,9.737,7.918,17.655,17.655,17.655
				c9.737,0,17.655-7.918,17.655-17.655C344.276,228.608,336.358,220.69,326.621,220.69z"/>
			<path d="M88.276,52.961V459.03h335.448V52.961h-88.276c0,9.737-7.918,17.655-17.655,17.655H194.207
				c-9.737,0-17.655-7.918-17.655-17.655H88.276z M256,423.72H123.586c-4.882,0-8.828-3.946-8.828-8.828
				c0-4.873,3.946-8.828,8.828-8.828H256c4.882,0,8.828,3.955,8.828,8.828C264.828,419.774,260.882,423.72,256,423.72z M256,379.582
				H123.586c-4.882,0-8.828-3.946-8.828-8.828c0-4.873,3.946-8.828,8.828-8.828H256c4.882,0,8.828,3.955,8.828,8.828
				C264.828,375.636,260.882,379.582,256,379.582z M256,335.444H123.586c-4.882,0-8.828-3.946-8.828-8.828
				c0-4.873,3.946-8.828,8.828-8.828H256c4.882,0,8.828,3.955,8.828,8.828C264.828,331.498,260.882,335.444,256,335.444z
				 M395.591,340.582l-43.944,61.519l-0.194,0.274c-0.141,0.194-0.371,0.265-0.521,0.45c-0.53,0.627-1.042,1.28-1.757,1.766
				c-0.212,0.132-0.441,0.185-0.653,0.3c-0.238,0.132-0.477,0.229-0.733,0.344c-1.13,0.494-2.313,0.83-3.505,0.83h-0.009h-0.009
				c-0.018,0-0.044-0.009-0.062-0.009c-0.794,0-1.571-0.141-2.331-0.353c-0.238-0.071-0.468-0.177-0.706-0.265
				c-0.574-0.221-1.112-0.486-1.633-0.821c-0.124-0.079-0.265-0.106-0.388-0.194c-0.079-0.062-0.115-0.15-0.194-0.212
				c-0.759-0.574-1.465-1.236-2.021-2.074l-17.655-26.483c-2.71-4.061-1.615-9.534,2.445-12.244
				c4.061-2.701,9.534-1.607,12.244,2.454l10.567,15.846l36.705-51.394c2.842-3.964,8.36-4.882,12.306-2.048
				C397.506,331.092,398.433,336.609,395.591,340.582z M189.767,118.144c5.464-7.645,14.336-12.217,23.746-12.217h84.974
				c9.41,0,18.282,4.573,23.746,12.217l35.407,49.576h16.984c12.473,0,22.616,10.152,22.616,22.616v34.225
				c0,12.465-10.143,22.607-22.616,22.607h-13.948c-3.946,15.192-17.646,26.483-34.057,26.483c-16.41,0-30.111-11.29-34.057-26.483
				h-73.128c-3.946,15.192-17.646,26.483-34.057,26.483c-16.411,0-30.111-11.29-34.057-26.483h-13.948
				c-12.473,0-22.616-10.143-22.616-22.607v-34.225c0-12.465,10.143-22.616,22.616-22.616h16.984L189.767,118.144z"/>
			<polygon points="317.793,0 194.207,0 194.207,44.138 194.207,52.966 317.784,52.966 			"/>
			<path d="M450.207,0H335.448v35.31h88.276c9.737,0,17.655,7.918,17.655,17.655v406.069c0,9.737-7.918,17.655-17.655,17.655H88.276
				c-9.737,0-17.655-7.918-17.655-17.655V52.966c0-9.737,7.918-17.655,17.655-17.655h88.276V0H61.793
				C47.192,0,35.31,11.882,35.31,26.483v459.034C35.31,500.118,47.192,512,61.793,512h388.414c14.601,0,26.483-11.882,26.483-26.483
				V26.483C476.69,11.882,464.808,0,450.207,0z"/>
		</g>
	</g>
</g>
</svg>