<?xml version="1.0" encoding="iso-8859-1"?>
<!-- Uploaded to: SVG Repo, www.svgrepo.com, Generator: SVG Repo Mixer Tools -->
<svg fill="#000000" height="800px" width="800px" version="1.1" id="Layer_1" xmlns="http://www.w3.org/2000/svg" xmlns:xlink="http://www.w3.org/1999/xlink" 
	 viewBox="0 0 512 512" xml:space="preserve">
<g>
	<g>
		<path d="M278.118,69.483c-1.284-1.794-4.109-1.117-4.439,1.065l-1.888,12.482l-15.608,6.117l-13.102-10.458l1.843-12.187
			c0.332-2.199-2.208-3.683-3.959-2.304c-4.996,3.935-8.566,9.7-9.592,16.484c-1.478,9.771,2.744,19.148,10.156,24.678
			l-3.518,23.262l-35.22,28.678l-11.113-23.508c-8.542-18.071-26.977-29.748-46.966-29.748c-1.241,0-1.971,0-2.382,0
			c-0.35,0-0.467,0-0.467,0c-2.61,0-18.213,0-95.309,0c-25.344,0-46.426,20.618-46.554,45.963v143.405
			c-0.054,10.78,8.281,19.563,19.062,19.618c0.033,0,0.066,0,0.1,0c10.734,0,19.943-8.675,19.998-19.422V150.201v-0.002
			c0.011-2.135,1.988-3.858,4.124-3.852c2.135,0.006,3.862,1.739,3.862,3.874c0.001,47.629,0.009,317.775,0.009,328.117
			c0,12.937,10.487,23.424,23.424,23.424c12.937,0,23.424-10.487,23.424-23.424V291.11h10.114v187.23
			c0,12.937,10.487,23.424,23.424,23.424c12.937,0,23.424-10.487,23.424-23.424c0,0-0.367-276.295-0.419-326.55
			c-0.001-1.436,0.993-2.68,2.394-2.994c1.4-0.315,2.831,0.383,3.445,1.682l21.762,46.037c5.398,11.417,20.128,14.81,29.973,6.794
			l22.897-18.644c1.469,4.084,5.073,7.254,9.666,7.949c6.666,1.008,12.887-3.579,13.895-10.244l2.912-19.26l7.868-6.406
			c8.36-6.807,9.619-19.102,2.811-27.461c-1.422-1.747-3.094-3.165-4.911-4.284l2.411-15.947c8.588-3.046,15.5-10.67,16.997-20.573
			C283.715,81.493,281.904,74.778,278.118,69.483z"/>
	</g>
</g>
<g>
	<g>
		<path d="M99.053,10.237c-22.344,0-40.455,18.113-40.455,40.457c0,22.371,18.163,40.455,40.455,40.455
			c22.329,0,40.456-18.112,40.456-40.456C139.509,28.35,121.396,10.237,99.053,10.237z"/>
	</g>
</g>
<g>
	<g>
		<path d="M499.813,229.665h-33.578c-6.729,0-12.185,5.456-12.185,12.185v15.085l-2.509,2.645l-18.39-98.589
			c-1.2-6.437-6.818-11.103-13.365-11.103H294.008c-1.121,11.215-6.832,21.239-15.19,28.125c-1.267,2.552-1.127,4.721-1.127,6.604
			c0,6.067,4.918,10.985,10.985,10.985h35.076c6.067,0,10.984-4.918,10.984-10.985c0-2.037,0.207-4.546-1.637-7.539h75.393
			l16.9,90.607h-19.916c-2.179-22.789-21.406-40.678-44.756-40.678s-42.577,17.889-44.756,40.678H187.035l7.093-38.021
			c-8.614-0.346-16.596-3.284-23.248-8.273v107.505c5.04-7.665,13.709-12.73,23.564-12.73c15.57,0,28.191,12.629,28.191,28.209
			c0,15.579-12.621,28.209-28.191,28.209c-9.855,0-18.524-5.063-23.564-12.73v106.833c5.894,6.886,14.643,11.256,24.417,11.256
			c17.748,0,32.136-14.388,32.136-32.136v-28.843h29.037v10.893c0,6.085,4.933,11.018,11.018,11.018h77.452
			c6.085,0,11.018-4.933,11.018-11.018v-10.893h29.037v28.843c0,17.748,14.388,32.136,32.136,32.136s32.136-14.388,32.136-32.136
			v-28.843h6.262c11.891,0,21.532-9.641,21.532-21.532v-69.096c0-17.224-7.579-32.668-19.571-43.212l12.525-13.206h29.8
			c6.729,0,12.185-5.456,12.185-12.185V241.85C511.998,235.12,506.543,229.665,499.813,229.665z M337.916,394.674h-63.403
			c-5.665,0-10.257-4.593-10.257-10.259c0-5.666,4.593-10.259,10.257-10.259h63.403c5.665,0,10.258,4.593,10.258,10.259
			C348.173,390.081,343.58,394.674,337.916,394.674z M354.851,355.59h-97.275c-5.665,0-10.257-4.593-10.257-10.259
			s4.593-10.259,10.257-10.259h97.275c5.665,0,10.258,4.593,10.258,10.259S360.517,355.59,354.851,355.59z M338.86,267.686
			c2.018-10.249,11.027-18.018,21.86-18.018s19.84,7.77,21.86,18.018H338.86z M417.984,372.585
			c-15.57,0-28.191-12.629-28.191-28.209c0-15.579,12.621-28.209,28.191-28.209c15.57,0,28.191,12.629,28.191,28.209
			C446.175,359.955,433.554,372.585,417.984,372.585z"/>
	</g>
</g>
</svg>